<svg width="35" height="35" viewBox="0 0 35 35" fill="none" xmlns="http://www.w3.org/2000/svg">
<path fill-rule="evenodd" clip-rule="evenodd" d="M17.5 0C14.714 0 12.0421 1.10625 10.0722 3.07538C8.10218 5.04451 6.99545 7.71523 6.99545 10.5V13.7812L5.41977 12.6C5.23584 12.4621 5.02654 12.3618 4.80382 12.3048C4.5811 12.2477 4.34932 12.2351 4.12172 12.2676C3.89412 12.3001 3.67515 12.3771 3.47732 12.4942C3.27948 12.6113 3.10666 12.7661 2.96871 12.95C2.83076 13.1339 2.73039 13.3431 2.67333 13.5657C2.61627 13.7883 2.60364 14.02 2.63615 14.2475C2.66867 14.475 2.74569 14.6939 2.86283 14.8916C2.97997 15.0894 3.13493 15.2621 3.31886 15.4L6.58577 17.85C5.80844 19.894 3.91237 22.0325 0.843289 23.8752C0.641983 23.9988 0.46747 24.1613 0.330054 24.3533C0.192637 24.5454 0.0951023 24.763 0.043207 24.9933C-0.00868838 25.2236 -0.0138924 25.462 0.0279021 25.6944C0.0696966 25.9268 0.157643 26.1484 0.286548 26.3463C2.2439 29.281 5.34974 31.5 8.74621 31.5C11.8696 31.5 14.0107 35 17.5 35C21.0208 35 23.1182 31.5 26.2538 31.5C29.6503 31.5 32.7561 29.281 34.7135 26.3463C34.8424 26.1484 34.9303 25.9268 34.9721 25.6944C35.0139 25.462 35.0087 25.2236 34.9568 24.9933C34.9049 24.763 34.8074 24.5454 34.6699 24.3533C34.5325 24.1613 34.358 23.9988 34.1567 23.8752C31.0876 22.0325 29.1916 19.894 28.4142 17.85L31.6811 15.4C32.0526 15.1215 32.2982 14.707 32.3638 14.2475C32.4295 13.788 32.3099 13.3213 32.0313 12.95C31.7527 12.5787 31.3379 12.3332 30.8783 12.2676C30.4186 12.202 29.9517 12.3215 29.5802 12.6L28.0045 13.7812V10.5C28.0045 7.71523 26.8978 5.04451 24.9278 3.07538C22.9579 1.10625 20.286 0 17.5 0Z" fill="#861043"/>
</svg>
