<svg width="27" height="26" viewBox="0 0 27 26" fill="none" xmlns="http://www.w3.org/2000/svg">
<path d="M12.7524 0.345606C12.9021 -0.11505 13.5538 -0.11505 13.7035 0.345605L16.4834 8.90133C16.5504 9.10734 16.7423 9.24683 16.9589 9.24683H25.955C26.4393 9.24683 26.6407 9.86663 26.2489 10.1513L18.9709 15.4391C18.7957 15.5664 18.7224 15.7921 18.7893 15.9981L21.5692 24.5538C21.7189 25.0145 21.1917 25.3975 20.7998 25.1128L13.5219 19.8251C13.3466 19.6978 13.1093 19.6978 12.9341 19.8251L5.65614 25.1128C5.26428 25.3975 4.73704 25.0145 4.88672 24.5538L7.66664 15.9981C7.73358 15.7921 7.66025 15.5664 7.485 15.4391L0.207068 10.1513C-0.184788 9.86663 0.0165983 9.24683 0.50096 9.24683H9.49698C9.7136 9.24683 9.90558 9.10735 9.97251 8.90133L12.7524 0.345606Z" fill="#FFDF20"/>
</svg>
